<mxfile host="65bd71144e" modified="2020-11-26T09:48:23.978Z" agent="5.0 (Windows NT 6.1; Win64; x64) AppleWebKit/537.36 (KHTML, like Gecko) Code/1.51.0 Chrome/83.0.4103.122 Electron/9.3.3 Safari/537.36" etag="L_EmK_PwVimArCG13FOR" version="13.6.5">
    <diagram id="xoukfH07bEcbub9Sq1Ur" name="第 1 页">
        <mxGraphModel dx="1362" dy="910" grid="1" gridSize="10" guides="1" tooltips="1" connect="1" arrows="1" fold="1" page="1" pageScale="1" pageWidth="827" pageHeight="1169" math="0" shadow="0">
            <root>
                <mxCell id="0"/>
                <mxCell id="1" parent="0"/>
                <mxCell id="534" value="用户表" style="rounded=0;whiteSpace=wrap;html=1;" parent="1" vertex="1">
                    <mxGeometry x="40" y="40" width="540" height="40" as="geometry"/>
                </mxCell>
                <mxCell id="493" value="" style="shape=table;html=1;whiteSpace=wrap;startSize=0;container=1;collapsible=0;childLayout=tableLayout;" parent="1" vertex="1">
                    <mxGeometry x="40" y="80" width="540" height="80" as="geometry"/>
                </mxCell>
                <mxCell id="494" value="" style="shape=partialRectangle;html=1;whiteSpace=wrap;collapsible=0;dropTarget=0;pointerEvents=0;fillColor=none;top=0;left=0;bottom=0;right=0;points=[[0,0.5],[1,0.5]];portConstraint=eastwest;" parent="493" vertex="1">
                    <mxGeometry width="540" height="40" as="geometry"/>
                </mxCell>
                <mxCell id="495" value="id" style="shape=partialRectangle;html=1;whiteSpace=wrap;connectable=0;overflow=hidden;fillColor=none;top=0;left=0;bottom=0;right=0;" parent="494" vertex="1">
                    <mxGeometry width="60" height="40" as="geometry"/>
                </mxCell>
                <mxCell id="496" value="所属组织" style="shape=partialRectangle;html=1;whiteSpace=wrap;connectable=0;overflow=hidden;fillColor=none;top=0;left=0;bottom=0;right=0;" parent="494" vertex="1">
                    <mxGeometry x="60" width="60" height="40" as="geometry"/>
                </mxCell>
                <mxCell id="497" value="&lt;span&gt;电子邮箱&lt;/span&gt;" style="shape=partialRectangle;html=1;whiteSpace=wrap;connectable=0;overflow=hidden;fillColor=none;top=0;left=0;bottom=0;right=0;" parent="494" vertex="1">
                    <mxGeometry x="120" width="60" height="40" as="geometry"/>
                </mxCell>
                <mxCell id="498" value="用户名" style="shape=partialRectangle;html=1;whiteSpace=wrap;connectable=0;overflow=hidden;fillColor=none;top=0;left=0;bottom=0;right=0;" parent="494" vertex="1">
                    <mxGeometry x="180" width="60" height="40" as="geometry"/>
                </mxCell>
                <mxCell id="499" value="用户密码" style="shape=partialRectangle;html=1;whiteSpace=wrap;connectable=0;overflow=hidden;fillColor=none;top=0;left=0;bottom=0;right=0;" parent="494" vertex="1">
                    <mxGeometry x="240" width="60" height="40" as="geometry"/>
                </mxCell>
                <mxCell id="500" value="手机号" style="shape=partialRectangle;html=1;whiteSpace=wrap;connectable=0;overflow=hidden;fillColor=none;top=0;left=0;bottom=0;right=0;" parent="494" vertex="1">
                    <mxGeometry x="300" width="60" height="40" as="geometry"/>
                </mxCell>
                <mxCell id="501" value="&lt;span&gt;创建时间&lt;/span&gt;" style="shape=partialRectangle;html=1;whiteSpace=wrap;connectable=0;overflow=hidden;fillColor=none;top=0;left=0;bottom=0;right=0;" parent="494" vertex="1">
                    <mxGeometry x="360" width="60" height="40" as="geometry"/>
                </mxCell>
                <mxCell id="79JyHKBBykygI58AvJbj-575" value="登陆时间" style="shape=partialRectangle;html=1;whiteSpace=wrap;connectable=0;overflow=hidden;fillColor=none;top=0;left=0;bottom=0;right=0;" parent="494" vertex="1">
                    <mxGeometry x="420" width="60" height="40" as="geometry"/>
                </mxCell>
                <mxCell id="79JyHKBBykygI58AvJbj-580" value="上次登录时间" style="shape=partialRectangle;html=1;whiteSpace=wrap;connectable=0;overflow=hidden;fillColor=none;top=0;left=0;bottom=0;right=0;" parent="494" vertex="1">
                    <mxGeometry x="480" width="60" height="40" as="geometry"/>
                </mxCell>
                <mxCell id="535" value="" style="shape=partialRectangle;html=1;whiteSpace=wrap;collapsible=0;dropTarget=0;pointerEvents=0;fillColor=none;top=0;left=0;bottom=0;right=0;points=[[0,0.5],[1,0.5]];portConstraint=eastwest;" vertex="1" parent="493">
                    <mxGeometry y="40" width="540" height="40" as="geometry"/>
                </mxCell>
                <mxCell id="536" value="" style="shape=partialRectangle;html=1;whiteSpace=wrap;connectable=0;overflow=hidden;fillColor=none;top=0;left=0;bottom=0;right=0;" vertex="1" parent="535">
                    <mxGeometry width="60" height="40" as="geometry"/>
                </mxCell>
                <mxCell id="537" value="" style="shape=partialRectangle;html=1;whiteSpace=wrap;connectable=0;overflow=hidden;fillColor=none;top=0;left=0;bottom=0;right=0;" vertex="1" parent="535">
                    <mxGeometry x="60" width="60" height="40" as="geometry"/>
                </mxCell>
                <mxCell id="538" value="" style="shape=partialRectangle;html=1;whiteSpace=wrap;connectable=0;overflow=hidden;fillColor=none;top=0;left=0;bottom=0;right=0;" vertex="1" parent="535">
                    <mxGeometry x="120" width="60" height="40" as="geometry"/>
                </mxCell>
                <mxCell id="539" value="" style="shape=partialRectangle;html=1;whiteSpace=wrap;connectable=0;overflow=hidden;fillColor=none;top=0;left=0;bottom=0;right=0;" vertex="1" parent="535">
                    <mxGeometry x="180" width="60" height="40" as="geometry"/>
                </mxCell>
                <mxCell id="540" value="" style="shape=partialRectangle;html=1;whiteSpace=wrap;connectable=0;overflow=hidden;fillColor=none;top=0;left=0;bottom=0;right=0;" vertex="1" parent="535">
                    <mxGeometry x="240" width="60" height="40" as="geometry"/>
                </mxCell>
                <mxCell id="541" value="" style="shape=partialRectangle;html=1;whiteSpace=wrap;connectable=0;overflow=hidden;fillColor=none;top=0;left=0;bottom=0;right=0;" vertex="1" parent="535">
                    <mxGeometry x="300" width="60" height="40" as="geometry"/>
                </mxCell>
                <mxCell id="542" value="" style="shape=partialRectangle;html=1;whiteSpace=wrap;connectable=0;overflow=hidden;fillColor=none;top=0;left=0;bottom=0;right=0;" vertex="1" parent="535">
                    <mxGeometry x="360" width="60" height="40" as="geometry"/>
                </mxCell>
                <mxCell id="543" style="shape=partialRectangle;html=1;whiteSpace=wrap;connectable=0;overflow=hidden;fillColor=none;top=0;left=0;bottom=0;right=0;" vertex="1" parent="535">
                    <mxGeometry x="420" width="60" height="40" as="geometry"/>
                </mxCell>
                <mxCell id="544" style="shape=partialRectangle;html=1;whiteSpace=wrap;connectable=0;overflow=hidden;fillColor=none;top=0;left=0;bottom=0;right=0;" vertex="1" parent="535">
                    <mxGeometry x="480" width="60" height="40" as="geometry"/>
                </mxCell>
            </root>
        </mxGraphModel>
    </diagram>
</mxfile>